# xmcd
#
# Track frame offsets:
# 150
# 15065
# 31295
# 47655
# 63730
# 77767
# 94795
# 110277
# 123675
#
# Disc length: 1859 seconds
#
#
# Revision: 0
# Processed by: cddbd v1.5.1PL0 Copyright (c) Steve Scherf et al.
# Submitted via: FreeRIP 2.93 
#
DISCID=69074109
DTITLE=Tim Goodwin - Now That Romeo's Gone
DYEAR=1997
DGENRE=Country
TTITLE0=Blue-Eyed Bayou Baby From Baton Rouge
TTITLE1=Now That Romeo's Gone
TTITLE2=Goodbye Mexico
TTITLE3=Sleepin' Alone
TTITLE4=I've Held You In My Dreams
TTITLE5=The Southern Way
TTITLE6=One More Dance
TTITLE7=Race Day Sunday
TTITLE8=My Love Is True
EXTD=
EXTT0=
EXTT1=
EXTT2=
EXTT3=
EXTT4=
EXTT5=
EXTT6=
EXTT7=
EXTT8=
PLAYORDER=
